HIERARCHY
ROOT hip
{
	OFFSET 0.000000 0.000000 0.000000 
	CHANNELS 6 Xposition Yposition Zposition Xrotation Zrotation Yrotation
	JOINT abdomen
	{
		OFFSET 0.000000 3.402643 0.000000 
		CHANNELS 3 Xrotation Zrotation Yrotation
		JOINT chest
		{
			OFFSET 0.000000 8.438565 -0.680529 
			CHANNELS 3 Xrotation Zrotation Yrotation
			JOINT neck
			{
				OFFSET 0.000000 10.207942 -0.272212 
				CHANNELS 3 Xrotation Zrotation Yrotation
				JOINT head
				{
					OFFSET 0.000000 3.130431 0.000000 
					CHANNELS 3 Xrotation Zrotation Yrotation
					End Site
					{
						OFFSET 0.000000 3.130435 0.000000 
					}
				}
			}
			JOINT lCollar
			{
				OFFSET 3.470700 6.669187 -0.816635 
				CHANNELS 3 Yrotation Zrotation Xrotation
				JOINT lShldr
				{
					OFFSET 3.198488 0.000000 0.000000 
					CHANNELS 3 Zrotation Yrotation Xrotation
					JOINT lForeArm
					{
						OFFSET 10.139888 0.000000 0.000000 
						CHANNELS 3 Yrotation Zrotation Xrotation
						JOINT lHand
						{
							OFFSET 8.370511 0.000000 0.000000 
							CHANNELS 3 Zrotation Yrotation Xrotation
							End Site
							{
								OFFSET 4.083176 0.000000 0.000000 
							}
						}
					}
				}
			}
			JOINT rCollar
			{
				OFFSET -3.470700 6.669187 -0.816635 
				CHANNELS 3 Yrotation Zrotation Xrotation
				JOINT rShldr
				{
					OFFSET -3.198488 0.000000 0.000000 
					CHANNELS 3 Zrotation Yrotation Xrotation
					JOINT rForeArm
					{
						OFFSET -10.139888 0.000000 0.000000 
						CHANNELS 3 Yrotation Zrotation Xrotation
						JOINT rHand
						{
							OFFSET -8.370511 0.000000 0.000000 
							CHANNELS 3 Zrotation Yrotation Xrotation
							End Site
							{
								OFFSET -4.083176 0.000000 0.000000 
							}
						}
					}
				}
			}
		}
	}
	JOINT lThigh
	{
		OFFSET 5.308129 -1.633274 1.361059 
		CHANNELS 3 Xrotation Zrotation Yrotation
		JOINT lShin
		{
			OFFSET -2.041588 -20.007561 0.000000 
			CHANNELS 3 Xrotation Zrotation Yrotation
			JOINT lFoot
			{
				OFFSET 0.000000 -19.190928 -1.224953 
				CHANNELS 3 Xrotation Yrotation Zrotation
				End Site
				{
					OFFSET 0.000000 -2.449906 4.627600 
				}
			}
		}
	}
	JOINT rThigh
	{
		OFFSET -5.308129 -1.633274 1.361059 
		CHANNELS 3 Xrotation Zrotation Yrotation
		JOINT rShin
		{
			OFFSET 2.041588 -20.007561 0.000000 
			CHANNELS 3 Xrotation Zrotation Yrotation
			JOINT rFoot
			{
				OFFSET 0.000000 -19.190928 -1.224953 
				CHANNELS 3 Xrotation Yrotation Zrotation
				End Site
				{
					OFFSET 0.000000 -2.449906 4.627600 
				}
			}
		}
	}
}
MOTION
Frames: 16
Frame Time: 0.011111
30.552803 47.606457 -130.087830 -0.224588 -5.637474 -5.672298 34.819664 5.557435 6.497990 -22.428118 -3.212676 1.083779 -15.353129 0.383464 1.045226 -6.931107 -6.343810 2.573210 0.736540 -9.814158 1.078738 -68.986717 -19.218197 -15.934811 -38.221672 4.080445 3.776590 8.524705 12.647240 -33.108780 -3.299667 11.850037 1.750699 55.097897 46.734909 47.871643 75.159401 -8.217884 19.725264 -8.534408 -12.637552 66.068222 -38.942219 12.001043 -2.280132 38.990719 -4.728559 -5.987116 -17.878998 5.241530 -1.251534 20.828722 2.851959 2.850549 9.628323 5.991824 2.066573 -25.511253 1.109105 2.722625 
30.600117 47.530376 -129.486191 0.146462 -6.009821 -6.109106 34.605362 6.081014 6.578643 -22.584465 -3.173844 1.041312 -15.147478 0.099228 1.356171 -6.990538 -6.007996 3.073865 0.736540 -9.814158 1.078738 -69.658424 -18.637781 -18.161608 -38.020718 4.005326 3.714122 8.524705 12.647240 -34.515026 -3.299667 11.850037 1.750699 54.838634 47.444286 48.474812 75.423073 -8.149334 19.864828 -8.534408 -12.637552 65.775246 -39.808033 12.527486 -3.341064 36.969151 -4.884563 -5.753524 -18.343859 5.961506 -0.981518 21.840231 2.968504 3.529308 8.230245 5.993288 1.872332 -24.978094 0.869123 2.656340 
30.657663 47.455891 -128.860245 0.371034 -6.412973 -6.535725 34.769295 6.567338 6.869614 -23.596085 -3.879289 1.107517 -14.727459 0.266531 1.493987 -6.856709 -5.412911 3.350818 0.736540 -9.814158 1.078738 -69.513893 -17.288889 -18.902264 -37.990612 3.992202 3.699216 8.524705 12.647240 -35.159557 -3.299667 11.850037 1.750699 55.344418 47.217842 48.962780 75.716728 -8.071399 20.027359 -8.534408 -12.637552 65.374855 -40.532345 13.026017 -4.327702 35.412903 -4.981820 -5.559174 -18.921726 6.791482 -0.633108 23.376307 3.056858 4.258967 6.162621 6.005039 1.570013 -24.128252 0.287403 2.481168 
30.735344 47.434151 -128.181580 0.341349 -6.209034 -6.902323 34.583641 6.364145 6.848843 -22.548813 -3.885393 1.093841 -15.283924 0.216329 1.476032 -6.984500 -5.480824 3.307778 0.736540 -9.814158 1.078738 -69.693764 -17.983749 -20.700352 -37.498871 3.800108 3.530801 8.524705 12.647240 -36.917374 -3.299667 11.850037 1.750699 55.092907 48.659943 48.891495 75.907310 -8.016897 20.128263 -8.534408 -12.637552 65.218605 -40.483772 12.918669 -4.893071 33.991402 -5.089181 -5.357842 -19.630575 7.360561 -0.328705 25.487101 2.519542 4.705909 3.111799 5.978320 1.137945 -22.766737 -0.682341 2.205879 
30.803434 47.425201 -127.482437 0.165538 -6.033189 -7.449121 34.902752 6.068099 6.896702 -23.077110 -3.853556 1.157996 -15.596206 0.184968 1.514782 -6.074943 -5.554110 3.327488 0.736540 -9.814158 1.078738 -69.994751 -17.195162 -21.719873 -37.268288 3.709509 3.455882 8.524705 12.647240 -37.444714 -3.299667 11.850037 1.750699 55.087841 48.757767 49.096344 76.086525 -7.962601 20.219837 -8.534408 -12.637552 65.062363 -40.204582 13.024834 -5.319581 33.006145 -5.152641 -5.239663 -20.544683 7.463146 -0.113786 27.854038 1.924409 5.271573 -0.105478 5.941248 0.703349 -21.153778 -1.692012 1.981870 
30.864176 47.360626 -126.776253 0.009728 -6.141228 -7.950264 35.089558 6.050405 6.936323 -22.752684 -3.585229 1.146685 -15.791001 0.139946 1.659375 -6.328864 -5.854557 3.639469 0.736540 -9.814158 1.078738 -70.622116 -17.151402 -22.768438 -37.107891 3.643962 3.401222 8.524705 12.647240 -38.089245 -3.299667 11.850037 1.750699 54.863564 49.515232 49.354355 76.177780 -7.938353 20.279070 -8.534408 -12.637552 65.081894 -40.191238 13.338812 -5.862503 32.478863 -5.177165 -5.189863 -21.195017 7.847088 0.134987 28.775467 1.631161 5.835305 -0.106497 5.941047 0.693611 -21.159630 -1.808363 1.956110 
30.930349 47.275909 -126.055054 -0.145801 -6.349549 -8.402875 35.370087 6.142999 7.161727 -22.724165 -3.749523 1.185057 -15.702982 0.292875 1.707613 -6.881685 -5.904981 3.807606 0.736540 -9.814158 1.078738 -70.799805 -16.996571 -23.938560 -36.917931 3.572260 3.339040 8.524705 12.647240 -39.026749 -3.299667 11.850037 1.750699 54.987759 49.932613 49.459435 76.276558 -7.906917 20.330399 -8.534408 -12.637552 65.033058 -40.138420 13.669996 -6.282761 32.319561 -5.186618 -5.168805 -21.412920 8.530130 0.402368 29.771681 1.387289 6.378545 -0.106506 5.940863 0.683859 -20.998787 -1.643861 2.034990 
30.988209 47.220924 -125.317558 -0.135974 -6.661865 -8.930610 35.371147 6.139598 7.663712 -22.509371 -3.872102 1.315366 -15.771390 0.320397 1.689601 -7.247196 -5.578628 3.769127 0.736540 -9.814158 1.078738 -70.977905 -16.792904 -23.924202 -37.017963 3.611730 3.373452 8.524705 12.647240 -39.427132 -3.299667 11.850037 1.750699 55.056774 50.263287 49.221645 76.348000 -7.887751 20.369009 -8.534408 -12.637552 65.023300 -40.134857 14.208367 -6.427557 32.488403 -5.186764 -5.164217 -21.499573 8.707412 0.474125 30.626053 1.192387 7.050904 -0.116164 5.940726 0.682984 -20.463701 -1.548263 2.119430 
31.039997 47.197269 -124.556396 -0.019395 -6.575466 -9.432476 34.951233 5.805528 7.850974 -21.922363 -3.937741 1.395812 -15.722737 0.425045 1.670328 -7.762907 -5.378368 3.789457 0.736540 -9.814158 1.078738 -71.195763 -16.521191 -22.408386 -37.559246 3.826185 3.551073 8.524705 12.647240 -38.167370 -3.299667 11.850037 1.750699 55.147526 50.613022 48.874714 76.377808 -7.878320 20.382406 -8.534408 -12.637552 64.974472 -40.089924 14.392472 -6.269342 32.937660 -5.142386 -5.250181 -21.801813 8.630966 0.509400 31.158859 0.693751 7.468071 -0.106479 5.941047 0.693611 -19.771908 -1.792863 2.113757 
31.091465 47.177769 -123.769028 -0.087080 -6.216353 -9.942723 34.783939 5.094798 7.821189 -21.872023 -3.641328 1.474954 -16.093256 0.225157 1.746954 -7.275985 -5.044518 3.829088 0.736540 -9.814158 1.078738 -71.521988 -16.172194 -22.541853 -37.669212 3.864035 3.587384 8.524705 12.647240 -37.923233 -3.299667 11.850037 1.750699 54.988972 50.509117 48.680515 76.388153 -7.876145 20.393253 -8.534408 -12.637552 64.984230 -39.644291 14.285923 -5.812648 33.672741 -5.108380 -5.335507 -22.117716 8.663399 0.601637 31.782141 -0.067427 7.727345 -0.106463 5.940864 0.683858 -18.976768 -2.263212 2.047487 
31.159557 47.148678 -122.960556 -0.038661 -6.159302 -10.260531 34.457951 4.851816 7.874363 -21.900970 -3.560019 1.521527 -16.278496 0.126385 1.806343 -6.719567 -4.618578 3.858071 0.736540 -9.814158 1.078738 -71.651222 -15.948589 -23.504658 -37.438515 3.773978 3.511241 8.524705 12.647240 -38.753307 -3.299667 11.850037 1.750699 54.975430 50.079464 48.577805 76.407524 -7.869479 20.405542 -8.534408 -12.637552 65.052589 -39.282482 14.305178 -5.584537 34.548157 -5.044815 -5.452532 -22.284763 8.712480 0.669242 32.428753 -0.497061 7.987656 -0.105428 5.941061 0.693596 -18.103348 -2.696804 1.989473 
31.236284 47.150597 -122.138657 0.077297 -6.138300 -10.359926 34.072292 4.838357 7.841735 -22.224298 -3.668957 1.538496 -16.492975 -0.077887 1.918226 -5.707294 -3.801669 3.934741 0.736540 -9.814158 1.078738 -71.745056 -15.275474 -23.259590 -37.478722 3.794383 3.532748 8.524705 12.647240 -38.567760 -3.299667 11.850037 1.750699 55.141380 49.196270 48.533215 76.455315 -7.850960 20.421831 -8.534408 -12.637552 65.081894 -38.926136 14.342762 -4.945463 35.530460 -4.985994 -5.580444 -22.183043 8.680677 0.629850 33.070995 -0.789484 8.052667 -0.105429 5.941248 0.703348 -17.074774 -2.998056 2.016378 
31.289988 47.165943 -121.311012 0.135119 -5.892905 -10.570708 33.575432 4.410223 7.741035 -22.270950 -3.177350 1.561898 -16.914225 -0.780760 2.144994 -4.405574 -2.611551 4.045285 0.736540 -9.814158 1.078738 -72.217537 -14.986175 -23.623373 -37.358654 3.749202 3.489885 8.524705 12.647240 -39.016979 -3.299667 11.850037 1.750699 54.727875 48.472748 48.380447 76.435974 -7.857667 20.409538 -8.534408 -12.637552 65.150246 -38.319019 14.315720 -3.318991 36.592709 -4.907813 -5.708611 -21.688498 8.753683 0.541226 33.720123 -1.357224 8.093970 -0.106443 5.941050 0.693610 -15.794788 -3.274178 2.079688 
31.343056 47.169136 -120.461929 0.289371 -5.483562 -10.545710 32.873245 3.932194 7.396946 -22.279896 -2.972931 1.540693 -17.286888 -1.134337 2.283050 -3.286792 -1.661913 4.130919 0.736540 -9.814158 1.078738 -72.268356 -14.761951 -24.521309 -37.067860 3.631710 3.395585 8.524705 12.647240 -40.335339 -3.299667 11.850037 1.750699 54.727688 47.661747 48.215527 76.325844 -7.891017 20.356071 -8.534408 -12.637552 65.091652 -37.804180 13.942406 -1.711300 37.692642 -4.835845 -5.830739 -20.715763 9.632979 0.609639 33.216812 -1.844071 7.801639 1.971810 5.968110 0.996130 -15.332200 -3.272913 2.123965 
31.398682 47.187038 -119.576416 0.453288 -5.190339 -10.452005 32.074898 3.647707 7.056627 -21.859764 -3.033908 1.501867 -17.404125 -1.183311 2.342558 -3.082948 -1.046282 4.201390 0.736540 -9.814158 1.078738 -72.081497 -14.858163 -25.323978 -36.697834 3.486984 3.272217 8.524705 12.647240 -41.819710 -3.299667 11.850037 1.750699 55.064857 47.097183 47.936203 76.156967 -7.942458 20.257402 -8.534408 -12.637552 64.935410 -37.475159 13.504313 -0.824489 38.702461 -4.773473 -5.928615 -19.515102 11.459421 0.808698 32.201977 -2.117594 7.518501 5.255518 5.994663 1.458507 -15.567094 -2.956090 2.180847 
31.442156 47.217087 -118.684509 0.578487 -5.234474 -10.581340 31.409721 3.482949 7.051724 -21.379877 -2.790579 1.514386 -17.463787 -1.332940 2.381063 -3.144175 -0.535428 4.213998 0.736540 -9.814158 1.078738 -72.147446 -15.171182 -25.540686 -36.478123 3.400467 3.196960 8.524705 12.647240 -41.936905 -3.299667 11.850037 1.750699 55.069202 46.559681 47.658955 75.966179 -7.998248 20.165062 -8.534408 -12.637552 64.779152 -37.205563 13.427299 -0.556190 39.603886 -4.689542 -6.047145 -18.789740 13.094933 1.051849 31.732235 -2.273505 7.624106 7.508721 5.992035 1.777797 -13.420826 -3.125967 2.331830 
